<?xml version="1.0" encoding="UTF-8" standalone="no" ?>
<!DOCTYPE svg PUBLIC "-//W3C//DTD SVG 1.1//EN" "http://www.w3.org/Graphics/SVG/1.1/DTD/svg11.dtd">
<svg xmlns="http://www.w3.org/2000/svg" xmlns:xlink="http://www.w3.org/1999/xlink" version="1.1" width="230" height="132" viewBox="0 0 230 132" xml:space="preserve">
<desc>Created with Fabric.js 5.2.4</desc>
<defs>
</defs>
<g transform="matrix(1 0 0 1 115 66)" id="b5797cf2-6afa-4547-9541-58eeb35100e7"  >
<rect style="stroke: none; stroke-width: 1; stroke-dasharray: none; stroke-linecap: butt; stroke-dashoffset: 0; stroke-linejoin: miter; stroke-miterlimit: 4; fill: rgb(255,255,255); fill-rule: nonzero; opacity: 1; visibility: hidden;" vector-effect="non-scaling-stroke"  x="-115" y="-66" rx="0" ry="0" width="230" height="132" />
</g>
<g transform="matrix(Infinity NaN NaN Infinity 0 0)" id="48349d6d-6b6f-4889-82ec-b7b740cf645e"  >
</g>
<g transform="matrix(0.68 0 0 0.68 115 81.6)"  >
<g style="" vector-effect="non-scaling-stroke"   >
		<g transform="matrix(1 0 0 1 -109 -16)"  >
<rect style="stroke: none; stroke-width: 1; stroke-dasharray: none; stroke-linecap: butt; stroke-dashoffset: 0; stroke-linejoin: miter; stroke-miterlimit: 4; fill: rgb(255,255,255); fill-opacity: 0; fill-rule: nonzero; opacity: 1;" vector-effect="non-scaling-stroke"  x="-50" y="-50" rx="0" ry="0" width="100" height="100" />
</g>
		<g transform="matrix(1 0 0 1 0 0)"  >
<rect style="stroke: none; stroke-width: 1; stroke-dasharray: none; stroke-linecap: butt; stroke-dashoffset: 0; stroke-linejoin: miter; stroke-miterlimit: 4; fill: rgb(255,255,255); fill-rule: nonzero; opacity: 1; visibility: hidden;" vector-effect="non-scaling-stroke"  x="-159" y="-66" rx="0" ry="0" width="318" height="132" />
</g>
		<g transform="matrix(0.02 0 0 -0.02 -63.49 -22.39)"  >
<path style="stroke: none; stroke-width: 1; stroke-dasharray: none; stroke-linecap: butt; stroke-dashoffset: 0; stroke-linejoin: miter; stroke-miterlimit: 4; fill: rgb(0,0,0); fill-rule: nonzero; opacity: 1;" vector-effect="non-scaling-stroke"  transform=" translate(-3864.25, -3940.51)" d="M 3725 4786 C 3435 4729 3245 4524 3179 4195 C 3161 4105 3161 3760 3179 3675 C 3218 3491 3276 3373 3380 3270 C 3463 3187 3534 3145 3650 3108 C 3714 3088 3745 3085 3870 3085 C 4040 3086 4112 3101 4240 3163 C 4342 3213 4438 3303 4488 3397 C 4521 3460 4560 3591 4560 3642 L 4560 3670 L 4361 3670 L 4163 3670 L 4156 3622 C 4153 3595 4139 3551 4125 3524 C 4081 3435 4009 3400 3870 3400 C 3793 3400 3775 3404 3729 3428 C 3622 3484 3581 3599 3573 3871 C 3562 4219 3610 4387 3739 4453 C 3785 4475 3806 4480 3871 4480 C 3954 4480 4025 4461 4073 4428 C 4110 4401 4148 4323 4156 4256 L 4163 4200 L 4363 4200 L 4563 4200 L 4556 4254 C 4541 4385 4455 4549 4357 4635 C 4289 4695 4189 4746 4093 4771 C 3991 4797 3818 4804 3725 4786 z" stroke-linecap="round" />
</g>
		<g transform="matrix(0.02 0 0 -0.02 -39.21 -22.26)"  >
<path style="stroke: none; stroke-width: 1; stroke-dasharray: none; stroke-linecap: butt; stroke-dashoffset: 0; stroke-linejoin: miter; stroke-miterlimit: 4; fill: rgb(0,0,0); fill-rule: nonzero; opacity: 1;" vector-effect="non-scaling-stroke"  transform=" translate(-4990, -3935)" d="M 4790 3935 L 4790 3100 L 4990 3100 L 5190 3100 L 5190 3935 L 5190 4770 L 4990 4770 L 4790 4770 L 4790 3935 z" stroke-linecap="round" />
</g>
		<g transform="matrix(0.02 0 0 -0.02 -15.46 -22.26)"  >
<path style="stroke: none; stroke-width: 1; stroke-dasharray: none; stroke-linecap: butt; stroke-dashoffset: 0; stroke-linejoin: miter; stroke-miterlimit: 4; fill: rgb(0,0,0); fill-rule: nonzero; opacity: 1;" vector-effect="non-scaling-stroke"  transform=" translate(-6114.51, -3935)" d="M 5470 3935 L 5470 3100 L 5828 3100 C 6211 3100 6322 3108 6440 3146 C 6660 3215 6771 3381 6758 3625 C 6751 3767 6690 3864 6570 3924 L 6501 3958 L 6554 3988 C 6680 4060 6744 4212 6720 4383 C 6692 4575 6554 4702 6320 4750 C 6236 4768 6183 4770 5848 4770 L 5470 4770 L 5470 3935 z M 6237 4432 C 6294 4402 6320 4351 6320 4270 C 6320 4189 6294 4138 6237 4108 C 6200 4088 6177 4085 6033 4082 L 5870 4078 L 5870 4270 L 5870 4462 L 6033 4458 C 6178 4455 6199 4452 6237 4432 z M 6260 3788 C 6314 3761 6347 3714 6356 3654 C 6366 3584 6353 3524 6318 3484 C 6266 3426 6236 3417 6043 3412 L 5870 3408 L 5870 3609 L 5870 3810 L 6043 3810 C 6202 3810 6219 3808 6260 3788 z" stroke-linecap="round" />
</g>
		<g transform="matrix(0.02 0 0 -0.02 15.74 -22.26)"  >
<path style="stroke: none; stroke-width: 1; stroke-dasharray: none; stroke-linecap: butt; stroke-dashoffset: 0; stroke-linejoin: miter; stroke-miterlimit: 4; fill: rgb(0,0,0); fill-rule: nonzero; opacity: 1;" vector-effect="non-scaling-stroke"  transform=" translate(-7575, -3935)" d="M 7000 3935 L 7000 3100 L 7575 3100 L 8150 3100 L 8150 3255 L 8150 3410 L 7775 3410 L 7400 3410 L 7400 3610 L 7400 3810 L 7715 3810 L 8030 3810 L 8030 3960 L 8030 4110 L 7715 4110 L 7400 4110 L 7400 4285 L 7400 4460 L 7775 4460 L 8150 4460 L 8150 4615 L 8150 4770 L 7575 4770 L 7000 4770 L 7000 3935 z" stroke-linecap="round" />
</g>
		<g transform="matrix(0.02 0 0 -0.02 45.77 -22.26)"  >
<path style="stroke: none; stroke-width: 1; stroke-dasharray: none; stroke-linecap: butt; stroke-dashoffset: 0; stroke-linejoin: miter; stroke-miterlimit: 4; fill: rgb(0,0,0); fill-rule: nonzero; opacity: 1;" vector-effect="non-scaling-stroke"  transform=" translate(-8985, -3935)" d="M 8310 3935 L 8310 3100 L 8513 3102 L 8715 3105 L 8718 3398 L 8720 3690 L 8828 3690 L 8935 3690 L 9083 3395 L 9230 3100 L 9445 3100 C 9611 3100 9660 3103 9660 3113 C 9659 3119 9581 3275 9486 3459 L 9312 3793 L 9368 3827 C 9528 3923 9600 4060 9600 4268 C 9600 4475 9516 4612 9338 4699 C 9203 4765 9157 4770 8705 4770 L 8310 4770 L 8310 3935 z M 9090 4438 C 9161 4402 9200 4327 9200 4230 C 9200 4165 9183 4114 9149 4076 C 9099 4019 9055 4007 8878 4002 L 8720 3998 L 8720 4229 L 8720 4460 L 8883 4460 C 9032 4460 9050 4458 9090 4438 z" stroke-linecap="round" />
</g>
		<g transform="matrix(0.02 0 0 -0.02 56.95 10.33)"  >
<path style="stroke: none; stroke-width: 1; stroke-dasharray: none; stroke-linecap: butt; stroke-dashoffset: 0; stroke-linejoin: miter; stroke-miterlimit: 4; fill: rgb(0,0,0); fill-rule: nonzero; opacity: 1;" vector-effect="non-scaling-stroke"  transform=" translate(-9504.96, -2417.84)" d="M 9420 2819 C 9217 2784 9040 2601 9010 2395 C 8988 2242 9002 2168 9052 2162 C 9107 2156 9120 2173 9120 2254 C 9120 2356 9137 2436 9172 2503 C 9268 2682 9491 2754 9676 2665 C 9741 2633 9823 2546 9858 2473 C 9884 2417 9885 2408 9888 2213 L 9892 2010 L 9951 2010 L 10010 2010 L 10010 2193 C 10010 2457 9979 2558 9864 2674 C 9750 2790 9578 2846 9420 2819 z" stroke-linecap="round" />
</g>
		<g transform="matrix(0.02 0 0 -0.02 -63.1 24.59)"  >
<path style="stroke: none; stroke-width: 1; stroke-dasharray: none; stroke-linecap: butt; stroke-dashoffset: 0; stroke-linejoin: miter; stroke-miterlimit: 4; fill: rgb(0,0,0); fill-rule: nonzero; opacity: 1;" vector-effect="non-scaling-stroke"  transform=" translate(-3882.5, -1738.57)" d="M 3771 2589 C 3492 2546 3288 2355 3208 2060 C 3187 1982 3185 1954 3185 1735 C 3185 1515 3187 1488 3208 1410 C 3281 1146 3449 971 3695 904 C 3790 879 3988 874 4111 895 C 4291 925 4461 997 4545 1078 L 4580 1112 L 4580 1451 L 4580 1790 L 4235 1790 L 3890 1790 L 3890 1655 L 3890 1520 L 4030 1520 L 4170 1520 L 4170 1386 C 4170 1257 4169 1252 4147 1237 C 4106 1210 4019 1190 3945 1190 C 3716 1190 3613 1315 3589 1618 C 3579 1756 3591 1955 3614 2031 C 3665 2199 3761 2283 3900 2284 C 3995 2285 4056 2264 4106 2214 C 4145 2175 4156 2152 4186 2043 C 4189 2033 4237 2030 4383 2030 L 4578 2030 L 4563 2108 C 4516 2359 4363 2517 4115 2573 C 4025 2594 3853 2602 3771 2589 z" stroke-linecap="round" />
</g>
		<g transform="matrix(0.02 0 0 -0.02 -29.43 24.84)"  >
<path style="stroke: none; stroke-width: 1; stroke-dasharray: none; stroke-linecap: butt; stroke-dashoffset: 0; stroke-linejoin: miter; stroke-miterlimit: 4; fill: rgb(0,0,0); fill-rule: nonzero; opacity: 1;" vector-effect="non-scaling-stroke"  transform=" translate(-5460, -1727.21)" d="M 4803 1963 C 4806 1416 4808 1349 4824 1295 C 4882 1098 5029 960 5240 903 C 5323 880 5587 878 5670 899 C 5759 921 5881 983 5939 1036 C 6008 1098 6052 1167 6087 1267 L 6115 1345 L 6118 1958 L 6121 2570 L 5921 2570 L 5721 2570 L 5717 1978 C 5715 1549 5711 1375 5702 1349 C 5669 1249 5600 1200 5486 1192 C 5389 1186 5335 1202 5284 1254 C 5210 1328 5210 1323 5210 1987 L 5210 2570 L 5004 2570 L 4799 2570 L 4803 1963 z" stroke-linecap="round" />
</g>
		<g transform="matrix(0.02 0 0 -0.02 -5.07 24.67)"  >
<path style="stroke: none; stroke-width: 1; stroke-dasharray: none; stroke-linecap: butt; stroke-dashoffset: 0; stroke-linejoin: miter; stroke-miterlimit: 4; fill: rgb(0,0,0); fill-rule: nonzero; opacity: 1;" vector-effect="non-scaling-stroke"  transform=" translate(-6590, -1735)" d="M 6390 1735 L 6390 900 L 6590 900 L 6790 900 L 6790 1735 L 6790 2570 L 6590 2570 L 6390 2570 L 6390 1735 z" stroke-linecap="round" />
</g>
		<g transform="matrix(0.02 0 0 -0.02 19.69 24.69)"  >
<path style="stroke: none; stroke-width: 1; stroke-dasharray: none; stroke-linecap: butt; stroke-dashoffset: 0; stroke-linejoin: miter; stroke-miterlimit: 4; fill: rgb(0,0,0); fill-rule: nonzero; opacity: 1;" vector-effect="non-scaling-stroke"  transform=" translate(-7765.84, -1734.38)" d="M 7565 2553 C 7562 2543 7426 2175 7265 1735 C 7104 1295 6969 927 6965 918 C 6958 901 6972 900 7174 900 L 7389 900 L 7429 1027 C 7451 1098 7472 1167 7475 1183 L 7482 1210 L 7761 1210 L 8039 1210 L 8086 1063 C 8111 981 8135 912 8139 907 C 8143 903 8241 901 8357 902 L 8568 905 L 8261 1735 L 7955 2565 L 7764 2568 C 7588 2570 7572 2569 7565 2553 z M 7940 1528 C 7940 1523 7861 1520 7765 1520 C 7618 1520 7590 1522 7590 1535 C 7590 1543 7612 1620 7639 1707 C 7666 1794 7705 1919 7725 1984 L 7762 2104 L 7851 1819 C 7900 1663 7940 1532 7940 1528 z" stroke-linecap="round" />
</g>
		<g transform="matrix(0.02 0 0 -0.02 56.79 31.55)"  >
<path style="stroke: none; stroke-width: 1; stroke-dasharray: none; stroke-linecap: butt; stroke-dashoffset: 0; stroke-linejoin: miter; stroke-miterlimit: 4; fill: rgb(0,0,0); fill-rule: nonzero; opacity: 1;" vector-effect="non-scaling-stroke"  transform=" translate(-9502.5, -1420.01)" d="M 8797 1953 C 8793 1950 8790 1712 8790 1425 C 8790 996 8792 900 8804 891 C 8813 883 9008 881 9516 882 L 10215 885 L 10215 1420 L 10215 1955 L 9509 1958 C 9121 1959 8800 1957 8797 1953 z M 9681 1842 C 9760 1814 9802 1791 9797 1777 C 9791 1760 9765 1764 9680 1796 C 9616 1820 9591 1824 9505 1823 C 9421 1823 9394 1819 9335 1796 C 9232 1756 9220 1754 9220 1778 C 9220 1799 9287 1832 9384 1857 C 9454 1875 9609 1867 9681 1842 z M 9654 1738 C 9687 1727 9737 1703 9766 1684 C 9855 1625 9930 1530 9887 1530 C 9880 1530 9847 1556 9814 1589 C 9778 1624 9726 1661 9684 1681 C 9619 1713 9609 1715 9509 1715 C 9408 1715 9401 1714 9328 1677 C 9280 1654 9232 1619 9196 1584 C 9160 1548 9135 1530 9125 1534 C 9100 1543 9107 1555 9171 1619 C 9304 1752 9480 1796 9654 1738 z M 9664 1626 C 9906 1508 9959 1166 9732 1183 C 9659 1188 9630 1212 9603 1291 C 9577 1365 9542 1400 9492 1400 C 9411 1400 9382 1289 9436 1182 C 9468 1118 9536 1057 9604 1031 C 9661 1010 9679 980 9635 980 C 9593 980 9493 1039 9448 1089 C 9336 1215 9334 1380 9443 1434 C 9477 1450 9487 1451 9523 1440 C 9577 1424 9624 1373 9639 1316 C 9653 1260 9678 1233 9724 1225 C 9795 1211 9845 1262 9835 1335 C 9820 1440 9742 1541 9641 1589 C 9559 1627 9448 1626 9368 1587 C 9296 1552 9234 1490 9201 1420 C 9179 1374 9175 1351 9176 1280 C 9176 1226 9182 1182 9192 1159 C 9209 1121 9202 1093 9178 1103 C 9157 1111 9130 1216 9130 1288 C 9130 1445 9234 1588 9390 1644 C 9462 1670 9591 1661 9664 1626 z M 9593 1536 C 9681 1504 9746 1423 9757 1331 C 9762 1285 9761 1280 9743 1280 C 9727 1280 9722 1288 9717 1320 C 9709 1381 9666 1445 9614 1476 C 9462 1565 9291 1464 9290 1285 C 9290 1214 9327 1127 9390 1047 C 9423 1006 9428 995 9418 982 C 9407 970 9399 974 9363 1014 C 9276 1110 9229 1246 9250 1344 C 9267 1429 9343 1518 9417 1540 C 9460 1553 9551 1551 9593 1536 z M 9522 1285 C 9533 1194 9607 1136 9734 1118 C 9773 1113 9807 1107 9809 1105 C 9811 1103 9810 1093 9806 1084 C 9801 1070 9790 1068 9741 1073 C 9588 1089 9480 1178 9480 1288 C 9480 1348 9516 1346 9522 1285 z" stroke-linecap="round" />
</g>
</g>
</g>
</svg>